<svg width="33" height="32" viewBox="0 0 33 32" fill="none" xmlns="http://www.w3.org/2000/svg">
<g id="uil:linkedin">
<path id="Vector" d="M27.7933 2.66666H5.20664C4.95275 2.66313 4.70064 2.70966 4.46473 2.80357C4.22882 2.89749 4.01371 3.03695 3.83171 3.21401C3.6497 3.39106 3.50435 3.60224 3.40397 3.83547C3.30358 4.06871 3.25012 4.31943 3.24664 4.57333V27.4267C3.25012 27.6806 3.30358 27.9313 3.40397 28.1645C3.50435 28.3977 3.6497 28.6089 3.83171 28.786C4.01371 28.963 4.22882 29.1025 4.46473 29.1964C4.70064 29.2903 4.95275 29.3369 5.20664 29.3333H27.7933C28.0472 29.3369 28.2993 29.2903 28.5352 29.1964C28.7711 29.1025 28.9862 28.963 29.1682 28.786C29.3503 28.6089 29.4956 28.3977 29.596 28.1645C29.6964 27.9313 29.7498 27.6806 29.7533 27.4267V4.57333C29.7498 4.31943 29.6964 4.06871 29.596 3.83547C29.4956 3.60224 29.3503 3.39106 29.1682 3.21401C28.9862 3.03695 28.7711 2.89749 28.5352 2.80357C28.2993 2.70966 28.0472 2.66313 27.7933 2.66666ZM11.2866 24.9867H7.28664V12.9867H11.2866V24.9867ZM9.28664 11.3067C8.73499 11.3067 8.20594 11.0875 7.81586 10.6974C7.42579 10.3074 7.20664 9.77831 7.20664 9.22666C7.20664 8.67501 7.42579 8.14595 7.81586 7.75588C8.20594 7.3658 8.73499 7.14666 9.28664 7.14666C9.57957 7.11344 9.87621 7.14247 10.1571 7.23184C10.4381 7.32121 10.697 7.46891 10.9169 7.66528C11.1367 7.86164 11.3127 8.10223 11.4331 8.3713C11.5536 8.64037 11.6159 8.93185 11.6159 9.22666C11.6159 9.52147 11.5536 9.81295 11.4331 10.082C11.3127 10.3511 11.1367 10.5917 10.9169 10.788C10.697 10.9844 10.4381 11.1321 10.1571 11.2215C9.87621 11.3109 9.57957 11.3399 9.28664 11.3067ZM25.7133 24.9867H21.7133V18.5467C21.7133 16.9333 21.14 15.88 19.6866 15.88C19.2369 15.8833 18.7989 16.0244 18.4318 16.2842C18.0646 16.5441 17.786 16.9102 17.6333 17.3333C17.529 17.6467 17.4838 17.9768 17.5 18.3067V24.9733H13.5V12.9733H17.5V14.6667C17.8634 14.0361 18.3919 13.5167 19.0286 13.1643C19.6653 12.8118 20.3861 12.6398 21.1133 12.6667C23.78 12.6667 25.7133 14.3867 25.7133 18.08V24.9867Z" fill="#123458"/>
</g>
</svg>
